<svg xmlns="http://www.w3.org/2000/svg" viewBox="0 0 100 100" width="100" height="100">
  <!-- Red octagon -->
  <polygon points="50,2 79,10 96,35 96,65 79,90 50,98 21,90 4,65 4,35 21,10" fill="#CC0000" stroke="#8B0000" stroke-width="2"/>
  <!-- White border octagon -->
  <polygon points="50,10 74,17 88,38 88,62 74,83 50,90 26,83 12,62 12,38 26,17" fill="none" stroke="white" stroke-width="2"/>
  <!-- White hand (raised palm) -->
  <g fill="white" transform="translate(30,22) scale(0.5)">
    <path d="M40,10 C40,4 48,4 48,10 L48,50 L40,50 Z"/>
    <path d="M52,6 C52,0 60,0 60,6 L60,48 L52,48 Z"/>
    <path d="M64,10 C64,4 72,4 72,10 L72,48 L64,48 Z"/>
    <path d="M76,18 C76,12 84,12 84,18 L84,50 L76,50 Z"/>
    <path d="M28,28 C28,22 36,22 36,28 L36,70 C36,90 28,100 56,100 C80,100 84,85 84,70 L84,50 L40,50 L40,28 Z"/>
  </g>
</svg>
