<svg xmlns="http://www.w3.org/2000/svg" viewBox="0 0 100 100" width="100" height="100">
  <polygon points="50,2 79,10 96,35 96,65 79,90 50,98 21,90 4,65 4,35 21,10" fill="#CC0000" stroke="#8B0000" stroke-width="2"/>
  <polygon points="50,10 74,17 88,38 88,62 74,83 50,90 26,83 12,62 12,38 26,17" fill="none" stroke="white" stroke-width="2"/>
  <path d="M42,25 L42,50 L38,50 L38,33 C38,30 34,30 34,33 L34,55 C34,70 40,78 50,78 C60,78 66,70 66,55 L66,33 C66,30 62,30 62,33 L62,50 L58,50 L58,25 C58,22 54,22 54,25 L54,48 L50,48 L50,22 C50,19 46,19 46,22 L46,48 L42,48 L42,25 C42,22 38,22 38,25" fill="white"/>
</svg>
